<?xml version="1.0" standalone="no"?>
<!DOCTYPE svg PUBLIC "-//W3C//DTD SVG 20010904//EN"
 "http://www.w3.org/TR/2001/REC-SVG-20010904/DTD/svg10.dtd">
<svg version="1.0" xmlns="http://www.w3.org/2000/svg"
 width="200.000000pt" height="200.000000pt" viewBox="0 0 200.000000 200.000000"
 preserveAspectRatio="xMidYMid meet">
<metadata>
Created by potrace 1.14, written by Peter Selinger 2001-2017
</metadata>
<g transform="translate(0.000000,200.000000) scale(0.100000,-0.100000)"
fill="#000000" stroke="none">
<path d="M1572 1388 c-5 -7 -9 -48 -8 -91 1 -43 -1 -81 -4 -85 -3 -4 -16 -8
-30 -10 -41 -6 -68 -29 -94 -80 -60 -121 -31 -236 55 -215 31 8 57 31 76 67
l15 29 17 -27 c12 -20 22 -25 41 -22 39 6 60 17 70 35 14 27 -14 50 -36 29
-28 -28 -43 47 -43 212 0 74 0 143 0 153 -1 20 -43 24 -59 5z m-14 -257 c7
-46 -51 -171 -79 -171 -5 0 -9 20 -9 45 0 95 77 204 88 126z"/>
<path d="M1788 1277 c-74 -60 -93 -227 -33 -277 22 -19 97 -17 124 2 34 24 71
79 71 105 0 36 -35 29 -60 -12 -12 -20 -35 -42 -51 -50 -26 -14 -29 -14 -39 6
-10 17 -7 26 17 55 79 98 93 129 74 170 -14 32 -65 33 -103 1z m23 -90 c-25
-39 -27 -30 -5 21 9 20 18 31 21 24 3 -7 -5 -27 -16 -45z"/>
<path d="M841 1198 c-4 -12 -7 -33 -5 -47 1 -15 5 -57 8 -96 3 -38 9 -90 12
-115 3 -25 7 -70 9 -100 2 -30 4 -61 4 -68 1 -9 12 -12 34 -10 32 3 32 4 29
50 -4 59 8 86 29 66 72 -70 143 -89 174 -45 15 22 15 22 -25 29 -37 6 -120 59
-120 77 0 7 29 52 40 61 3 3 17 20 32 38 31 37 27 64 -7 59 -32 -4 -50 -22
-92 -89 -21 -35 -39 -54 -43 -48 -4 7 -8 46 -10 88 -4 161 -7 172 -41 172 -11
0 -23 -10 -28 -22z"/>
<path d="M1202 1128 c-80 -57 -90 -247 -14 -277 31 -11 70 -8 101 8 33 18 72
87 78 141 7 61 0 88 -32 123 -33 35 -86 37 -133 5z m89 -50 c21 -38 14 -105
-16 -149 -14 -22 -32 -39 -38 -36 -38 12 -44 120 -11 176 22 36 48 40 65 9z"/>
<path d="M453 1054 c-5 -14 -1 -89 13 -254 8 -87 27 -131 54 -127 36 6 40 19
25 77 -9 30 -18 111 -21 179 -2 68 -7 128 -10 132 -9 15 -54 10 -61 -7z"/>
<path d="M724 1009 c-10 -12 -27 -40 -36 -62 l-17 -42 0 41 c-1 45 -14 57 -50
47 -26 -7 -27 -13 -16 -110 7 -64 29 -161 40 -171 10 -10 39 -11 51 -1 6 5 12
33 13 62 2 70 5 85 31 146 21 47 25 51 57 51 21 0 36 6 39 15 17 44 -76 64
-112 24z"/>
<path d="M170 1003 c-80 -56 -154 -227 -135 -312 12 -55 75 -94 150 -93 98 1
249 82 232 125 -9 25 -31 21 -68 -14 -39 -36 -81 -59 -129 -70 -45 -11 -117
22 -126 56 -14 57 34 191 92 255 33 36 37 38 65 28 33 -11 89 -80 89 -109 0
-25 -21 -69 -33 -69 -5 0 -7 16 -5 36 3 29 1 38 -14 42 -10 2 -18 8 -18 13 0
5 -20 9 -45 9 -42 0 -45 -2 -71 -46 -32 -54 -37 -120 -11 -139 22 -16 75 -10
99 11 9 9 35 19 55 21 89 9 125 109 69 193 -15 23 -41 50 -59 60 -40 25 -104
26 -137 3z m64 -183 c-2 -54 -34 -92 -47 -57 -6 16 28 97 40 97 4 0 7 -18 7
-40z"/>
</g>
</svg>
